
<svg id="Group_19" data-name="Group 19" xmlns="http://www.w3.org/2000/svg" width="40.954" height="40.77" viewBox="0 0 40.954 40.77">
  <path id="Path_18047" data-name="Path 18047" d="M31.939,19.721s-.936.883-.95,3.467h0v2.7H27.6v3.819h3.389v9.867H34.9V29.705H38.26l.469-3.819H34.9v-2.7h0a1.569,1.569,0,0,1,1.715-1.6H38.9v-3.6H35.47a4.649,4.649,0,0,0-3.531,1.733" transform="translate(-12.841 -8.37)" fill="#EB1C7A"/>
  <path id="Path_18048" data-name="Path 18048" d="M63.092,61.834c-.56.167-.872.791-1.137,1.274-.242.44-.706.953-.707,1.467a.265.265,0,0,0,.333.251c.5-.141.868-.719,1.227-1.067.4-.385.926-.856.935-1.435a.517.517,0,0,0-.65-.489" transform="translate(-28.499 -28.763)" fill="#EB1C7A"/>
  <path id="Path_18049" data-name="Path 18049" d="M40.589,21.838c2.429-9.807-7.7-19.724-16.925-21.47A20.016,20.016,0,0,0,9,3.136C5.291,5.552,1.494,9.848,1.027,14.39a.376.376,0,0,0,.065.251c-2.923,7.5.262,16.936,6.675,21.7,6.359,4.72,16.81,6.376,23.572,1.445a.549.549,0,0,0-.559-.944q-.368.171-.735.337a.506.506,0,0,0-.7-.2c-4.5,2.135-10.752,1.055-15.2-.531-.5-.179-.847.623-.365.856a19.8,19.8,0,0,0,7.585,1.964,20.964,20.964,0,0,0,3.308-.1,15.62,15.62,0,0,1-5.278.448A21.809,21.809,0,0,1,9.123,35.769a16.678,16.678,0,0,1-7.368-9.721A19.941,19.941,0,0,1,1.81,14.771a.4.4,0,0,0,.125-.138c.2-.374.392-.743.585-1.109a17.675,17.675,0,0,0-.953,9.194c.958,5.822,4.239,9.67,9.069,12.828.58.379,1.16-.6.545-.921A17.649,17.649,0,0,1,2.773,22.458c-.8-5.221,1.1-10.116,4.208-14.272.265-.355-.3-.742-.6-.457A14.908,14.908,0,0,0,4.967,9.257,18.517,18.517,0,0,1,7.43,6.248c-.218.366.131.923.573.639,1.129-.724,2.217-1.493,3.388-2.152.834-.47,1.723-.846,2.579-1.275a.869.869,0,0,0,.484.005c6.212-1.578,12.4-.9,17.239,3.643a.344.344,0,0,0,.533-.062.388.388,0,0,0,.38.49.4.4,0,0,0,0-.807.367.367,0,0,0-.314.158.331.331,0,0,0-.1-.275A18.614,18.614,0,0,0,26.3,2.487c6.547,2.4,11.988,8.257,12.772,15.022a17.336,17.336,0,0,0-2.712-6.138.46.46,0,0,0-.8.46,22.928,22.928,0,0,1,2.707,10.383c.121,3.809-1.359,7.055-3.382,10.2-.206.32.27.71.533.446a.339.339,0,0,0,.4-.056c2.924-2.725,5.062-6.814,4.775-10.9a.544.544,0,0,0-.015-.061" transform="translate(0 0)" fill="#EB1C7A"/>
  <path id="Path_18050" data-name="Path 18050" d="M22.739,67.106a.522.522,0,0,0,.342.7,3.151,3.151,0,0,0,.649.18c.4.049.543-.49.307-.733a3.21,3.21,0,0,0-.551-.4.529.529,0,0,0-.747.249" transform="translate(-10.56 -31.075)" fill="#EB1C7A"/>
</svg>
