
<svg id="Group_17" data-name="Group 17" xmlns="http://www.w3.org/2000/svg" width="40.954" height="40.77" viewBox="0 0 40.954 40.77">
  <path id="Path_18055" data-name="Path 18055" d="M259.642,17.985h-8.281a6.649,6.649,0,0,0-6.648,6.649v8.28a6.648,6.648,0,0,0,6.648,6.647h8.281a6.647,6.647,0,0,0,6.648-6.647v-8.28a6.648,6.648,0,0,0-6.648-6.649m4.577,14.134a5.371,5.371,0,0,1-5.372,5.372h-6.692a5.371,5.371,0,0,1-5.372-5.372V25.427a5.373,5.373,0,0,1,5.372-5.372h6.692a5.373,5.373,0,0,1,5.372,5.372Z" transform="translate(-234.824 -8.369)" fill="#EB1C7A"/>
  <path id="Path_18056" data-name="Path 18056" d="M260.484,27.6a5.683,5.683,0,1,0,5.683,5.683,5.683,5.683,0,0,0-5.683-5.683m0,9.1a3.419,3.419,0,1,1,3.419-3.418,3.418,3.418,0,0,1-3.419,3.418" transform="translate(-239.517 -12.845)" fill="#EB1C7A"/>
  <path id="Path_18057" data-name="Path 18057" d="M274.066,24.733a1.446,1.446,0,1,0,1.446,1.446,1.446,1.446,0,0,0-1.446-1.446" transform="translate(-247.81 -11.509)" fill="#EB1C7A"/>
  <path id="Path_18058" data-name="Path 18058" d="M289.309,61.834c-.56.167-.872.791-1.137,1.274-.242.44-.706.953-.707,1.467a.265.265,0,0,0,.333.251c.5-.141.868-.719,1.227-1.067.4-.385.926-.856.935-1.435a.517.517,0,0,0-.65-.489" transform="translate(-254.716 -28.763)" fill="#EB1C7A"/>
  <path id="Path_18059" data-name="Path 18059" d="M266.807,21.838c2.429-9.807-7.7-19.724-16.925-21.47a20.016,20.016,0,0,0-14.661,2.768c-3.711,2.416-7.508,6.712-7.975,11.254a.376.376,0,0,0,.065.251c-2.923,7.5.262,16.936,6.675,21.7,6.359,4.72,16.81,6.376,23.572,1.445a.549.549,0,0,0-.559-.944q-.368.171-.735.337a.506.506,0,0,0-.7-.2c-4.5,2.135-10.751,1.055-15.2-.531-.5-.179-.848.623-.365.856a19.8,19.8,0,0,0,7.585,1.964,20.964,20.964,0,0,0,3.308-.1,15.62,15.62,0,0,1-5.278.448,21.808,21.808,0,0,1-10.272-3.847,16.678,16.678,0,0,1-7.368-9.721,19.941,19.941,0,0,1,.055-11.277.4.4,0,0,0,.125-.138c.2-.374.392-.743.585-1.109a17.674,17.674,0,0,0-.953,9.194c.958,5.822,4.238,9.67,9.069,12.828.58.379,1.16-.6.545-.921a17.649,17.649,0,0,1-8.409-12.167c-.8-5.221,1.1-10.116,4.208-14.272.265-.355-.3-.742-.6-.457a14.9,14.9,0,0,0-1.415,1.529,18.515,18.515,0,0,1,2.463-3.009c-.218.366.131.923.573.639,1.129-.724,2.217-1.493,3.388-2.152.834-.47,1.723-.846,2.579-1.275a.869.869,0,0,0,.484.005c6.212-1.578,12.4-.9,17.239,3.643a.344.344,0,0,0,.533-.062.388.388,0,0,0,.38.49.4.4,0,0,0,0-.807.367.367,0,0,0-.314.158.331.331,0,0,0-.1-.275,18.614,18.614,0,0,0-5.891-4.124c6.547,2.4,11.988,8.257,12.772,15.022a17.326,17.326,0,0,0-2.712-6.138.46.46,0,0,0-.8.46,22.926,22.926,0,0,1,2.707,10.383c.121,3.809-1.359,7.055-3.382,10.2-.206.32.27.71.533.446a.339.339,0,0,0,.4-.056c2.924-2.725,5.062-6.814,4.775-10.9a.544.544,0,0,0-.015-.061" transform="translate(-226.218 0)" fill="#EB1C7A"/>
  <path id="Path_18060" data-name="Path 18060" d="M248.957,67.106a.521.521,0,0,0,.342.7,3.146,3.146,0,0,0,.649.18c.4.049.543-.49.307-.733a3.211,3.211,0,0,0-.551-.4.529.529,0,0,0-.747.249" transform="translate(-236.778 -31.075)" fill="#EB1C7A"/>
</svg>
