
<svg id="Group_16" data-name="Group 16" xmlns="http://www.w3.org/2000/svg" width="40.954" height="40.77" viewBox="0 0 40.954 40.77">
  <path id="Path_18065" data-name="Path 18065" d="M152.68,373.961c-2.912-.481-4.225-3.472-4.279-3.6a.217.217,0,0,1-.011-.025.9.9,0,0,1-.1-.743c.159-.374.769-.568,1.174-.7.117-.036.227-.072.317-.107a2.44,2.44,0,0,0,.87-.521.82.82,0,0,0,.265-.6,1.011,1.011,0,0,0-1.066-.889,2.108,2.108,0,0,0-.758.166,2.171,2.171,0,0,1-.7.168.819.819,0,0,1-.3-.066c.01-.136.017-.276.027-.422l0-.063a10.89,10.89,0,0,0-.279-4.412,5.94,5.94,0,0,0-1.334-1.914,5.537,5.537,0,0,0-1.593-1.053,6.336,6.336,0,0,0-1.917-.5c-.252-.024-.512-.044-.765-.044a7.285,7.285,0,0,0-1.671.192,6.186,6.186,0,0,0-1.058.355,5.543,5.543,0,0,0-1.587,1.053,5.91,5.91,0,0,0-1.328,1.907,10.876,10.876,0,0,0-.28,4.409l0,0c.01.157.02.323.029.484a.865.865,0,0,1-.357.066,2.086,2.086,0,0,1-.742-.162,1.87,1.87,0,0,0-.632-.171,1.211,1.211,0,0,0-.619.179.914.914,0,0,0-.461.592.819.819,0,0,0,.311.766,2.681,2.681,0,0,0,.812.466c.092.037.2.071.317.107.4.129,1.015.323,1.176.7a.911.911,0,0,1-.105.743c0,.008-.006.015-.009.025a7.19,7.19,0,0,1-2.251,2.765,5.092,5.092,0,0,1-1.006.547,9.994,9.994,0,0,1-.982.271.544.544,0,0,0-.467.549.662.662,0,0,0,.053.224,1.359,1.359,0,0,0,.738.633,8.454,8.454,0,0,0,2.13.556,2.691,2.691,0,0,1,.13.471c.034.164.071.333.125.512a.558.558,0,0,0,.584.428,2.837,2.837,0,0,0,.5-.071,5.737,5.737,0,0,1,1.144-.13,4.976,4.976,0,0,1,.818.071,3.87,3.87,0,0,1,1.525.79c.047.031.091.063.136.1a8.262,8.262,0,0,0,1.024.636,4.22,4.22,0,0,0,1.276.4,5.33,5.33,0,0,0,.772.039,4.91,4.91,0,0,0,.847-.073,4.326,4.326,0,0,0,1.236-.457,6.052,6.052,0,0,0,.521-.317,5.425,5.425,0,0,0,.475-.327h0a3.89,3.89,0,0,1,1.527-.789,4.953,4.953,0,0,1,.817-.071,5.651,5.651,0,0,1,1.144.122,2.755,2.755,0,0,0,.5.061h.025a.551.551,0,0,0,.559-.419c.053-.176.09-.34.125-.508a2.572,2.572,0,0,1,.131-.468,8.425,8.425,0,0,0,2.129-.554,1.378,1.378,0,0,0,.738-.631.693.693,0,0,0,.053-.225.509.509,0,0,0-.426-.531" transform="translate(-121.583 -348.476)" fill="#EB1C7A"/>
  <path id="Path_18066" data-name="Path 18066" d="M176.2,401.459c-.56.167-.872.791-1.137,1.274-.242.44-.706.953-.707,1.466a.265.265,0,0,0,.333.251c.5-.141.868-.72,1.227-1.067.4-.385.926-.855.935-1.435a.517.517,0,0,0-.65-.489" transform="translate(-141.608 -368.387)" fill="#EB1C7A"/>
  <path id="Path_18067" data-name="Path 18067" d="M153.7,361.462c2.429-9.807-7.7-19.724-16.925-21.47a20.016,20.016,0,0,0-14.661,2.768c-3.711,2.416-7.508,6.712-7.976,11.254a.376.376,0,0,0,.065.251c-2.923,7.5.262,16.936,6.675,21.7,6.359,4.72,16.81,6.376,23.572,1.445a.549.549,0,0,0-.559-.944q-.368.171-.735.337a.507.507,0,0,0-.7-.2c-4.5,2.135-10.752,1.056-15.2-.531-.5-.179-.847.623-.365.857a19.813,19.813,0,0,0,7.585,1.964,20.963,20.963,0,0,0,3.308-.1,15.619,15.619,0,0,1-5.278.448,21.809,21.809,0,0,1-10.272-3.847,16.678,16.678,0,0,1-7.368-9.721,19.941,19.941,0,0,1,.055-11.277.4.4,0,0,0,.125-.138c.2-.374.392-.743.585-1.109a17.675,17.675,0,0,0-.953,9.194c.958,5.822,4.238,9.67,9.069,12.828.58.379,1.16-.6.545-.921a17.648,17.648,0,0,1-8.409-12.167c-.8-5.221,1.1-10.116,4.208-14.272.265-.355-.3-.742-.6-.457a14.963,14.963,0,0,0-1.415,1.529,18.516,18.516,0,0,1,2.463-3.009c-.218.366.131.923.573.639,1.129-.724,2.217-1.493,3.388-2.152.834-.47,1.723-.846,2.579-1.275a.863.863,0,0,0,.484.005c6.212-1.578,12.4-.9,17.239,3.643a.344.344,0,0,0,.533-.062.388.388,0,0,0,.38.49.4.4,0,0,0,0-.807.367.367,0,0,0-.314.158.331.331,0,0,0-.1-.275,18.614,18.614,0,0,0-5.891-4.124c6.547,2.4,11.988,8.257,12.772,15.022a17.336,17.336,0,0,0-2.712-6.138.46.46,0,0,0-.8.46,22.928,22.928,0,0,1,2.707,10.383c.121,3.809-1.359,7.056-3.382,10.2-.206.32.27.71.533.446a.34.34,0,0,0,.4-.056c2.924-2.725,5.062-6.814,4.775-10.9a.529.529,0,0,0-.015-.062" transform="translate(-113.109 -339.624)" fill="#EB1C7A"/>
  <path id="Path_18068" data-name="Path 18068" d="M135.848,406.731a.521.521,0,0,0,.341.7,3.16,3.16,0,0,0,.649.18c.4.049.543-.49.307-.733a3.2,3.2,0,0,0-.551-.4.528.528,0,0,0-.747.249" transform="translate(-123.669 -370.699)" fill="#e57200"/>
</svg>
