
<svg id="Group_18" data-name="Group 18" xmlns="http://www.w3.org/2000/svg" width="40.954" height="40.77" viewBox="0 0 40.954 40.77">
  <path id="Path_18051" data-name="Path 18051" d="M152.175,22.907a8.5,8.5,0,0,1-2.685,1.027,4.229,4.229,0,0,0-7.314,2.891,4.3,4.3,0,0,0,.109.966,12.013,12.013,0,0,1-8.716-4.418,4.231,4.231,0,0,0,1.309,5.644,4.191,4.191,0,0,1-1.915-.53c0,.019,0,.036,0,.054a4.23,4.23,0,0,0,3.391,4.145,4.257,4.257,0,0,1-1.113.149,4.175,4.175,0,0,1-.795-.078,4.232,4.232,0,0,0,3.949,2.938,8.478,8.478,0,0,1-5.251,1.81,8.626,8.626,0,0,1-1.008-.059,12.023,12.023,0,0,0,18.512-10.13c0-.183,0-.365-.012-.546a8.58,8.58,0,0,0,2.109-2.19,8.463,8.463,0,0,1-2.428.666,4.254,4.254,0,0,0,1.86-2.339" transform="translate(-121.962 -10.515)" fill="#EB1C7A"/>
  <path id="Path_18052" data-name="Path 18052" d="M176.2,61.834c-.56.167-.872.791-1.137,1.274-.242.44-.706.953-.707,1.467a.265.265,0,0,0,.333.251c.5-.141.868-.719,1.227-1.067.4-.385.926-.856.935-1.435a.517.517,0,0,0-.65-.489" transform="translate(-141.608 -28.763)" fill="#EB1C7A"/>
  <path id="Path_18053" data-name="Path 18053" d="M153.7,21.838c2.429-9.807-7.7-19.724-16.925-21.47a20.016,20.016,0,0,0-14.661,2.768C118.4,5.552,114.6,9.848,114.136,14.39a.376.376,0,0,0,.065.251c-2.923,7.5.262,16.936,6.675,21.7,6.359,4.72,16.81,6.376,23.572,1.445a.549.549,0,0,0-.559-.944q-.368.171-.735.337a.507.507,0,0,0-.7-.2c-4.5,2.135-10.752,1.055-15.2-.531-.5-.179-.847.623-.365.856a19.8,19.8,0,0,0,7.585,1.964,20.964,20.964,0,0,0,3.308-.1,15.62,15.62,0,0,1-5.278.448,21.809,21.809,0,0,1-10.272-3.847,16.678,16.678,0,0,1-7.368-9.721,19.941,19.941,0,0,1,.055-11.277.406.406,0,0,0,.125-.138c.2-.374.392-.743.585-1.109a17.675,17.675,0,0,0-.953,9.194c.958,5.822,4.238,9.67,9.069,12.828.58.379,1.16-.6.545-.921a17.648,17.648,0,0,1-8.409-12.167c-.8-5.221,1.1-10.116,4.208-14.272.265-.355-.3-.742-.6-.457a14.908,14.908,0,0,0-1.415,1.529,18.517,18.517,0,0,1,2.463-3.009c-.218.366.131.923.573.639,1.129-.724,2.217-1.493,3.388-2.152.834-.47,1.723-.846,2.579-1.275a.869.869,0,0,0,.484.005c6.212-1.578,12.4-.9,17.239,3.643a.344.344,0,0,0,.533-.062.388.388,0,0,0,.38.49.4.4,0,0,0,0-.807.367.367,0,0,0-.314.158.331.331,0,0,0-.1-.275,18.614,18.614,0,0,0-5.891-4.124c6.547,2.4,11.988,8.257,12.772,15.022a17.336,17.336,0,0,0-2.712-6.138.46.46,0,0,0-.8.46,22.927,22.927,0,0,1,2.707,10.383c.121,3.809-1.359,7.055-3.382,10.2-.206.32.27.71.533.446a.339.339,0,0,0,.4-.056c2.924-2.725,5.062-6.814,4.775-10.9a.544.544,0,0,0-.015-.061" transform="translate(-113.109 0)" fill="#EB1C7A"/>
  <path id="Path_18054" data-name="Path 18054" d="M135.848,67.106a.521.521,0,0,0,.341.7,3.16,3.16,0,0,0,.649.18c.4.049.543-.49.307-.733a3.231,3.231,0,0,0-.551-.4.529.529,0,0,0-.747.249" transform="translate(-123.669 -31.075)" fill="#EB1C7A"/>
</svg>
